<?xml version="1.0" encoding="utf-8"?>
<svg width="931" height="326" viewBox="0 0 931 326" fill="none" xmlns="http://www.w3.org/2000/svg">
  <defs>
    <clipPath id="clip_path_1">
      <rect width="581" height="170" />
    </clipPath>
    <path id="path_2" d="M0 0L326 0L326 285L0 285L0 0L0 0Z" />
    <clipPath id="clip_path_3">
      <use p4:href="#path_2" xmlns:p4="http://www.w3.org/1999/xlink" />
    </clipPath>
    <clipPath id="clip_path_4">
      <rect width="578" height="146" />
    </clipPath>
  </defs>
  <g id="Group">
    <g id="Group">
      <path d="M9.504 37.152L25.92 37.152L70.416 101.376L77.904 114.624L77.184 91.728L77.184 37.152L93.6 37.152L93.6 139.536L77.184 139.536L32.976 75.312L25.2 61.92L25.92 84.672L25.92 139.536L9.504 139.536L9.504 37.152ZM112.608 37.152L129.024 37.152L129.024 123.552L181.584 123.552L181.584 139.536L112.608 139.536L112.608 37.152ZM224.64 141.552Q214.272 141.264 205.992 136.224Q197.712 131.184 193.032 122.688Q188.352 114.192 188.352 103.824L188.352 72.864Q188.352 62.208 193.248 53.568Q198.144 44.928 206.784 40.032Q215.424 35.136 226.08 35.136L238.896 35.136Q249.696 35.136 258.336 40.032Q266.976 44.928 271.872 53.568Q276.768 62.208 276.768 72.864L276.768 103.824Q276.768 114.192 272.088 122.688Q267.408 131.184 259.128 136.224Q250.848 141.264 240.48 141.552L240.48 154.656L224.64 154.656L224.64 141.552ZM205.056 103.104Q205.056 112.752 210.312 118.656Q215.568 124.56 224.64 125.28L224.64 102.816L240.48 102.816L240.48 125.28Q249.552 124.56 254.808 118.656Q260.064 112.752 260.064 103.104L260.064 73.44Q260.064 63.216 254.016 57.24Q247.968 51.264 237.744 51.264L227.232 51.264Q217.008 51.264 211.032 57.24Q205.056 63.216 205.056 73.44L205.056 103.104ZM321.552 141.552Q306.144 141.552 298.08 133.488Q290.016 125.424 290.016 110.016L290.016 65.808L305.856 65.808L305.856 109.728Q305.856 117.648 309.888 121.896Q313.92 126.144 321.408 126.144L324.144 126.144Q331.632 126.144 335.664 121.896Q339.696 117.648 339.696 109.728L339.696 65.808L355.536 65.808L355.536 110.016Q355.536 125.28 347.472 133.416Q339.408 141.552 324 141.552L321.552 141.552ZM399.168 141.552Q383.472 141.552 375.12 133.2Q366.768 124.848 366.768 109.296L366.768 96.048Q366.768 80.64 375.12 72.288Q383.472 63.936 399.168 63.936L402.192 63.936Q417.744 63.936 426.096 72.288Q434.448 80.64 434.448 96.048L434.448 109.296L382.464 109.296L382.464 110.16Q382.464 118.368 386.784 122.832Q391.104 127.296 399.024 127.296L402.192 127.296Q408.096 127.296 411.984 124.848Q415.872 122.4 417.456 117.936L433.728 117.936Q431.568 129.312 423.504 135.432Q415.44 141.552 402.192 141.552L399.168 141.552ZM418.896 96.624L418.896 95.184Q418.896 86.832 414.648 82.44Q410.4 78.048 402.336 78.048L399.024 78.048Q390.96 78.048 386.712 82.44Q382.464 86.832 382.464 95.184L382.464 96.624L418.896 96.624ZM488.88 80.784L478.08 80.784Q470.88 80.784 466.2 85.752Q461.52 90.72 461.52 98.352L461.52 139.536L445.68 139.536L445.68 96.768Q445.68 81.936 454.176 73.872Q462.672 65.808 477.792 65.808L488.88 65.808L488.88 80.784ZM499.968 155.376L508.608 155.376Q513.648 155.376 517.176 152.424Q520.704 149.472 523.584 143.28L526.464 137.376L494.496 65.808L512.064 65.808L526.608 99.504L534.672 119.952L542.592 99.504L556.704 65.808L574.128 65.808L542.16 139.536Q535.968 154.8 528.696 162.36Q521.424 169.92 509.328 169.92L499.968 169.92L499.968 155.376Z" fill="#FFFFFF" clip-path="url(#clip_path_1)" transform="translate(345 0)" />
      <g id="g10" transform="matrix(1 0 0 -1 0 285)">
        <g id="g12">
          <g id="Group">
            <path id="path16" d="M0 0L326 0L326 285L0 285L0 0L0 0Z" />
            <g clip-path="url(#clip_path_3)">
              <g id="g14" transform="translate(13.818 10.14)">
                <path id="path20" d="M155.164 134.313L77.5822 0L0 134.313L155.164 134.313" fill="none" stroke-width="2" stroke="#000000" stroke-linecap="round" stroke-linejoin="round" transform="translate(74.994 0)" />
                <path id="path22" d="M5.1756 0L0 0" fill="none" stroke-width="2" stroke="#0084FF" stroke-linecap="round" stroke-linejoin="round" transform="translate(149.989 264.161)" />
                <path id="path24" d="M149.989 0L0 0" fill="none" stroke-width="2" stroke="#0084FF" stroke-linecap="round" stroke-linejoin="round" transform="translate(77.582 138.797)" />
                <path id="path26" d="M144.813 0L0 0" fill="none" stroke-width="2" stroke="#0084FF" stroke-linecap="round" stroke-linejoin="round" transform="translate(80.17 143.263)" />
                <path id="path28" d="M139.638 0L0 0" fill="none" stroke-width="2" stroke="#0084FF" stroke-linecap="round" stroke-linejoin="round" transform="translate(82.758 147.747)" />
                <path id="path30" d="M134.479 0L0 0" fill="none" stroke-width="2" stroke="#0084FF" stroke-linecap="round" stroke-linejoin="round" transform="translate(85.328 152.23)" />
                <path id="path32" d="M129.304 0L0 0" fill="none" stroke-width="2" stroke="#0084FF" stroke-linecap="round" stroke-linejoin="round" transform="translate(87.916 156.696)" />
                <path id="path34" d="M124.128 0L0 0" fill="none" stroke-width="2" stroke="#0084FF" stroke-linecap="round" stroke-linejoin="round" transform="translate(90.504 161.18)" />
                <path id="path36" d="M118.97 0L0 0" fill="none" stroke-width="2" stroke="#0084FF" stroke-linecap="round" stroke-linejoin="round" transform="translate(93.092 165.663)" />
                <path id="path38" d="M113.794 0L0 0" fill="none" stroke-width="2" stroke="#0084FF" stroke-linecap="round" stroke-linejoin="round" transform="translate(95.68 170.129)" />
                <path id="path40" d="M108.619 0L0 0" fill="none" stroke-width="2" stroke="#0084FF" stroke-linecap="round" stroke-linejoin="round" transform="translate(98.267 174.613)" />
                <path id="path42" d="M103.443 0L0 0" fill="none" stroke-width="2" stroke="#0084FF" stroke-linecap="round" stroke-linejoin="round" transform="translate(100.855 179.096)" />
                <path id="path44" d="M98.2674 0L0 0" fill="none" stroke-width="2" stroke="#0084FF" stroke-linecap="round" stroke-linejoin="round" transform="translate(103.443 183.562)" />
                <path id="path46" d="M93.0918 0L0 0" fill="none" stroke-width="2" stroke="#0084FF" stroke-linecap="round" stroke-linejoin="round" transform="translate(106.031 188.046)" />
                <path id="path48" d="M87.9162 0L0 0" fill="none" stroke-width="2" stroke="#0084FF" stroke-linecap="round" stroke-linejoin="round" transform="translate(108.619 192.512)" />
                <path id="path50" d="M82.7578 0L0 0" fill="none" stroke-width="2" stroke="#0084FF" stroke-linecap="round" stroke-linejoin="round" transform="translate(111.189 196.996)" />
                <path id="path52" d="M77.5822 0L0 0" fill="none" stroke-width="2" stroke="#0084FF" stroke-linecap="round" stroke-linejoin="round" transform="translate(113.777 201.479)" />
                <path id="path54" d="M72.4066 0L0 0" fill="none" stroke-width="2" stroke="#0084FF" stroke-linecap="round" stroke-linejoin="round" transform="translate(116.365 205.945)" />
                <path id="path56" d="M67.2483 0L0 0" fill="none" stroke-width="2" stroke="#0084FF" stroke-linecap="round" stroke-linejoin="round" transform="translate(118.953 210.429)" />
                <path id="path58" d="M62.0727 0L0 0" fill="none" stroke-width="2" stroke="#0084FF" stroke-linecap="round" stroke-linejoin="round" transform="translate(121.54 214.912)" />
                <path id="path60" d="M56.8971 0L0 0" fill="none" stroke-width="2" stroke="#0084FF" stroke-linecap="round" stroke-linejoin="round" transform="translate(124.128 219.378)" />
                <path id="path62" d="M51.7215 0L0 0" fill="none" stroke-width="2" stroke="#0084FF" stroke-linecap="round" stroke-linejoin="round" transform="translate(126.716 223.862)" />
                <path id="path64" d="M46.5459 0L0 0" fill="none" stroke-width="2" stroke="#0084FF" stroke-linecap="round" stroke-linejoin="round" transform="translate(129.304 228.345)" />
                <path id="path66" d="M41.3703 0L0 0" fill="none" stroke-width="2" stroke="#0084FF" stroke-linecap="round" stroke-linejoin="round" transform="translate(131.892 232.811)" />
                <path id="path68" d="M36.1947 0L0 0" fill="none" stroke-width="2" stroke="#0084FF" stroke-linecap="round" stroke-linejoin="round" transform="translate(134.48 237.295)" />
                <path id="path70" d="M31.0363 0L0 0" fill="none" stroke-width="2" stroke="#0084FF" stroke-linecap="round" stroke-linejoin="round" transform="translate(137.05 241.761)" />
                <path id="path72" d="M25.8607 0L0 0" fill="none" stroke-width="2" stroke="#0084FF" stroke-linecap="round" stroke-linejoin="round" transform="translate(139.638 246.244)" />
                <path id="path74" d="M20.6852 0L0 0" fill="none" stroke-width="2" stroke="#0084FF" stroke-linecap="round" stroke-linejoin="round" transform="translate(142.226 250.728)" />
                <path id="path76" d="M15.5268 0L0 0" fill="none" stroke-width="2" stroke="#0084FF" stroke-linecap="round" stroke-linejoin="round" transform="translate(144.813 255.194)" />
                <path id="path78" d="M10.3512 0L0 0" fill="none" stroke-width="2" stroke="#0084FF" stroke-linecap="round" stroke-linejoin="round" transform="translate(147.401 259.677)" />
                <path id="path80" d="M0 4.48344L2.5878 0" fill="none" stroke-width="2" stroke="#0084FF" stroke-linecap="round" stroke-linejoin="round" />
                <path id="path82" d="M0 129.847L74.9944 0" fill="none" stroke-width="2" stroke="#0084FF" stroke-linecap="round" stroke-linejoin="round" transform="translate(72.406 0)" />
                <path id="path84" d="M0 125.364L72.4066 0" fill="none" stroke-width="2" stroke="#0084FF" stroke-linecap="round" stroke-linejoin="round" transform="translate(69.819 0)" />
                <path id="path86" d="M0 120.88L69.8188 0" fill="none" stroke-width="2" stroke="#0084FF" stroke-linecap="round" stroke-linejoin="round" transform="translate(67.231 0)" />
                <path id="path88" d="M0 116.414L67.2483 0" fill="none" stroke-width="2" stroke="#0084FF" stroke-linecap="round" stroke-linejoin="round" transform="translate(64.643 0)" />
                <path id="path90" d="M0 111.931L64.6605 0" fill="none" stroke-width="2" stroke="#0084FF" stroke-linecap="round" stroke-linejoin="round" transform="translate(62.055 0)" />
                <path id="path92" d="M0 107.447L62.0727 0" fill="none" stroke-width="2" stroke="#0084FF" stroke-linecap="round" stroke-linejoin="round" transform="translate(59.468 0)" />
                <path id="path94" d="M0 102.981L59.4677 0" fill="none" stroke-width="2" stroke="#0084FF" stroke-linecap="round" stroke-linejoin="round" transform="translate(56.897 0)" />
                <path id="path96" d="M0 98.4977L56.8799 0" fill="none" stroke-width="2" stroke="#0084FF" stroke-linecap="round" stroke-linejoin="round" transform="translate(54.309 0)" />
                <path id="path98" d="M0 94.0143L54.3093 0" fill="none" stroke-width="2" stroke="#0084FF" stroke-linecap="round" stroke-linejoin="round" transform="translate(51.721 0)" />
                <path id="path100" d="M0 89.5481L51.7215 0" fill="none" stroke-width="2" stroke="#0084FF" stroke-linecap="round" stroke-linejoin="round" transform="translate(49.134 0)" />
                <path id="path102" d="M0 85.0646L49.1337 0" fill="none" stroke-width="2" stroke="#0084FF" stroke-linecap="round" stroke-linejoin="round" transform="translate(46.546 0)" />
                <path id="path104" d="M0 80.5984L46.5459 0" fill="none" stroke-width="2" stroke="#0084FF" stroke-linecap="round" stroke-linejoin="round" transform="translate(43.958 0)" />
                <path id="path106" d="M0 76.115L43.9581 0" fill="none" stroke-width="2" stroke="#0084FF" stroke-linecap="round" stroke-linejoin="round" transform="translate(41.37 0)" />
                <path id="path108" d="M0 71.6316L41.3876 0" fill="none" stroke-width="2" stroke="#0084FF" stroke-linecap="round" stroke-linejoin="round" transform="translate(38.782 0)" />
                <path id="path110" d="M0 67.1654L38.7998 0" fill="none" stroke-width="2" stroke="#0084FF" stroke-linecap="round" stroke-linejoin="round" transform="translate(36.195 0)" />
                <path id="path112" d="M0 62.6819L36.212 0" fill="none" stroke-width="2" stroke="#0084FF" stroke-linecap="round" stroke-linejoin="round" transform="translate(33.607 0)" />
                <path id="path114" d="M0 58.1985L33.6069 0" fill="none" stroke-width="2" stroke="#0084FF" stroke-linecap="round" stroke-linejoin="round" transform="translate(31.036 0)" />
                <path id="path116" d="M0 53.7323L31.0191 0" fill="none" stroke-width="2" stroke="#0084FF" stroke-linecap="round" stroke-linejoin="round" transform="translate(28.448 0)" />
                <path id="path118" d="M0 49.2489L28.4486 0" fill="none" stroke-width="2" stroke="#0084FF" stroke-linecap="round" stroke-linejoin="round" transform="translate(25.861 0)" />
                <path id="path120" d="M0 44.7654L25.8607 0" fill="none" stroke-width="2" stroke="#0084FF" stroke-linecap="round" stroke-linejoin="round" transform="translate(23.273 0)" />
                <path id="path122" d="M0 40.2992L23.2729 0" fill="none" stroke-width="2" stroke="#0084FF" stroke-linecap="round" stroke-linejoin="round" transform="translate(20.685 0)" />
                <path id="path124" d="M0 35.8158L20.6852 0" fill="none" stroke-width="2" stroke="#0084FF" stroke-linecap="round" stroke-linejoin="round" transform="translate(18.097 0)" />
                <path id="path126" d="M0 31.3496L18.0973 0" fill="none" stroke-width="2" stroke="#0084FF" stroke-linecap="round" stroke-linejoin="round" transform="translate(15.51 0)" />
                <path id="path128" d="M0 26.8661L15.5268 0" fill="none" stroke-width="2" stroke="#0084FF" stroke-linecap="round" stroke-linejoin="round" transform="translate(12.922 0)" />
                <path id="path130" d="M0 22.3827L12.939 0" fill="none" stroke-width="2" stroke="#0084FF" stroke-linecap="round" stroke-linejoin="round" transform="translate(10.334 0)" />
                <path id="path132" d="M0 17.9165L10.3512 0" fill="none" stroke-width="2" stroke="#0084FF" stroke-linecap="round" stroke-linejoin="round" transform="translate(7.746 0)" />
                <path id="path134" d="M0 13.4331L7.74615 0" fill="none" stroke-width="2" stroke="#0084FF" stroke-linecap="round" stroke-linejoin="round" transform="translate(5.176 0)" />
                <path id="path136" d="M0 8.94964L5.15835 0" fill="none" stroke-width="2" stroke="#0084FF" stroke-linecap="round" stroke-linejoin="round" transform="translate(2.588 0)" />
                <path id="path138" d="M0 0L2.5878 4.48344" fill="none" stroke-width="2" stroke="#0084FF" stroke-linecap="round" stroke-linejoin="round" transform="translate(302.566 0)" />
                <path id="path140" d="M0 0L74.9944 129.847" fill="none" stroke-width="2" stroke="#0084FF" stroke-linecap="round" stroke-linejoin="round" transform="translate(157.752 0)" />
                <path id="path142" d="M0 0L72.4239 125.364" fill="none" stroke-width="2" stroke="#0084FF" stroke-linecap="round" stroke-linejoin="round" transform="translate(162.911 0)" />
                <path id="path144" d="M0 0L69.8361 120.88" fill="none" stroke-width="2" stroke="#0084FF" stroke-linecap="round" stroke-linejoin="round" transform="translate(168.086 0)" />
                <path id="path146" d="M0 0L67.231 116.414" fill="none" stroke-width="2" stroke="#0084FF" stroke-linecap="round" stroke-linejoin="round" transform="translate(173.262 0)" />
                <path id="path148" d="M0 0L64.6432 111.931" fill="none" stroke-width="2" stroke="#0084FF" stroke-linecap="round" stroke-linejoin="round" transform="translate(178.438 0)" />
                <path id="path150" d="M0 0L62.0554 107.447" fill="none" stroke-width="2" stroke="#0084FF" stroke-linecap="round" stroke-linejoin="round" transform="translate(183.613 0)" />
                <path id="path152" d="M0 0L59.4849 102.981" fill="none" stroke-width="2" stroke="#0084FF" stroke-linecap="round" stroke-linejoin="round" transform="translate(188.772 0)" />
                <path id="path154" d="M0 0L56.8971 98.4977" fill="none" stroke-width="2" stroke="#0084FF" stroke-linecap="round" stroke-linejoin="round" transform="translate(193.947 0)" />
                <path id="path156" d="M0 0L54.3093 94.0143" fill="none" stroke-width="2" stroke="#0084FF" stroke-linecap="round" stroke-linejoin="round" transform="translate(199.123 0)" />
                <path id="path158" d="M0 0L51.7215 89.5481" fill="none" stroke-width="2" stroke="#0084FF" stroke-linecap="round" stroke-linejoin="round" transform="translate(204.298 0)" />
                <path id="path160" d="M0 0L49.1337 85.0646" fill="none" stroke-width="2" stroke="#0084FF" stroke-linecap="round" stroke-linejoin="round" transform="translate(209.474 0)" />
                <path id="path162" d="M0 0L46.5631 80.5984" fill="none" stroke-width="2" stroke="#0084FF" stroke-linecap="round" stroke-linejoin="round" transform="translate(214.632 0)" />
                <path id="path164" d="M0 0L43.9753 76.115" fill="none" stroke-width="2" stroke="#0084FF" stroke-linecap="round" stroke-linejoin="round" transform="translate(219.808 0)" />
                <path id="path166" d="M0 0L41.3703 71.6316" fill="none" stroke-width="2" stroke="#0084FF" stroke-linecap="round" stroke-linejoin="round" transform="translate(224.983 0)" />
                <path id="path168" d="M0 0L38.7825 67.1654" fill="none" stroke-width="2" stroke="#0084FF" stroke-linecap="round" stroke-linejoin="round" transform="translate(230.159 0)" />
                <path id="path170" d="M0 0L36.1947 62.6819" fill="none" stroke-width="2" stroke="#0084FF" stroke-linecap="round" stroke-linejoin="round" transform="translate(235.335 0)" />
                <path id="path172" d="M0 0L33.6242 58.1985" fill="none" stroke-width="2" stroke="#0084FF" stroke-linecap="round" stroke-linejoin="round" transform="translate(240.493 0)" />
                <path id="path174" d="M0 0L31.0363 53.7323" fill="none" stroke-width="2" stroke="#0084FF" stroke-linecap="round" stroke-linejoin="round" transform="translate(245.669 0)" />
                <path id="path176" d="M0 0L28.4485 49.2489" fill="none" stroke-width="2" stroke="#0084FF" stroke-linecap="round" stroke-linejoin="round" transform="translate(250.844 0)" />
                <path id="path178" d="M0 0L25.8607 44.7654" fill="none" stroke-width="2" stroke="#0084FF" stroke-linecap="round" stroke-linejoin="round" transform="translate(256.02 0)" />
                <path id="path180" d="M0 0L23.2729 40.2992" fill="none" stroke-width="2" stroke="#0084FF" stroke-linecap="round" stroke-linejoin="round" transform="translate(261.195 0)" />
                <path id="path182" d="M0 0L20.7024 35.8158" fill="none" stroke-width="2" stroke="#0084FF" stroke-linecap="round" stroke-linejoin="round" transform="translate(266.354 0)" />
                <path id="path184" d="M0 0L18.1146 31.3496" fill="none" stroke-width="2" stroke="#0084FF" stroke-linecap="round" stroke-linejoin="round" transform="translate(271.529 0)" />
                <path id="path186" d="M0 0L15.5096 26.8661" fill="none" stroke-width="2" stroke="#0084FF" stroke-linecap="round" stroke-linejoin="round" transform="translate(276.705 0)" />
                <path id="path188" d="M0 0L12.9218 22.3827" fill="none" stroke-width="2" stroke="#0084FF" stroke-linecap="round" stroke-linejoin="round" transform="translate(281.88 0)" />
                <path id="path190" d="M0 0L10.334 17.9165" fill="none" stroke-width="2" stroke="#0084FF" stroke-linecap="round" stroke-linejoin="round" transform="translate(287.056 0)" />
                <path id="path192" d="M0 0L7.7634 13.4331" fill="none" stroke-width="2" stroke="#0084FF" stroke-linecap="round" stroke-linejoin="round" transform="translate(292.214 0)" />
                <path id="path194" d="M0 0L5.1756 8.94964" fill="none" stroke-width="2" stroke="#0084FF" stroke-linecap="round" stroke-linejoin="round" transform="translate(297.39 0)" />
              </g>
            </g>
          </g>
        </g>
      </g>
    </g>
    <path d="M10.8 35.388Q8.208 35.316 6.138 34.056Q4.068 32.796 2.898 30.672Q1.728 28.548 1.728 25.956L1.728 18.216Q1.728 15.552 2.952 13.392Q4.176 11.232 6.336 10.008Q8.496 8.784 11.16 8.784L14.364 8.784Q17.064 8.784 19.224 10.008Q21.384 11.232 22.608 13.392Q23.832 15.552 23.832 18.216L23.832 25.956Q23.832 28.548 22.662 30.672Q21.492 32.796 19.422 34.056Q17.352 35.316 14.76 35.388L14.76 38.664L10.8 38.664L10.8 35.388ZM5.904 25.776Q5.904 28.188 7.218 29.664Q8.532 31.14 10.8 31.32L10.8 25.704L14.76 25.704L14.76 31.32Q17.028 31.14 18.342 29.664Q19.656 28.188 19.656 25.776L19.656 18.36Q19.656 15.804 18.144 14.31Q16.632 12.816 14.076 12.816L11.448 12.816Q8.892 12.816 7.398 14.31Q5.904 15.804 5.904 18.36L5.904 25.776ZM35.028 35.388Q31.176 35.388 29.16 33.372Q27.144 31.356 27.144 27.504L27.144 16.452L31.104 16.452L31.104 27.432Q31.104 29.412 32.112 30.474Q33.12 31.536 34.992 31.536L35.676 31.536Q37.548 31.536 38.556 30.474Q39.564 29.412 39.564 27.432L39.564 16.452L43.524 16.452L43.524 27.504Q43.524 31.32 41.508 33.354Q39.492 35.388 35.64 35.388L35.028 35.388ZM54.432 35.388Q50.508 35.388 48.42 33.3Q46.332 31.212 46.332 27.324L46.332 24.012Q46.332 20.16 48.42 18.072Q50.508 15.984 54.432 15.984L55.188 15.984Q59.076 15.984 61.164 18.072Q63.252 20.16 63.252 24.012L63.252 27.324L50.256 27.324L50.256 27.54Q50.256 29.592 51.336 30.708Q52.416 31.824 54.396 31.824L55.188 31.824Q56.664 31.824 57.636 31.212Q58.608 30.6 59.004 29.484L63.072 29.484Q62.532 32.328 60.516 33.858Q58.5 35.388 55.188 35.388L54.432 35.388ZM59.364 24.156L59.364 23.796Q59.364 21.708 58.302 20.61Q57.24 19.512 55.224 19.512L54.396 19.512Q52.38 19.512 51.318 20.61Q50.256 21.708 50.256 23.796L50.256 24.156L59.364 24.156ZM76.86 20.196L74.16 20.196Q72.36 20.196 71.19 21.438Q70.02 22.68 70.02 24.588L70.02 34.884L66.06 34.884L66.06 24.192Q66.06 20.484 68.184 18.468Q70.308 16.452 74.088 16.452L76.86 16.452L76.86 20.196ZM79.632 38.844L81.792 38.844Q83.052 38.844 83.934 38.106Q84.816 37.368 85.536 35.82L86.256 34.344L78.264 16.452L82.656 16.452L86.292 24.876L88.308 29.988L90.288 24.876L93.816 16.452L98.172 16.452L90.18 34.884Q88.632 38.7 86.814 40.59Q84.996 42.48 81.972 42.48L79.632 42.48L79.632 38.844ZM116.568 35.388Q112.356 35.388 110.016 33.57Q107.676 31.752 107.388 28.296Q107.352 28.008 107.352 27.288L111.528 27.288Q111.528 29.484 112.896 30.456Q114.264 31.428 116.856 31.428L118.584 31.428Q120.924 31.428 122.148 30.51Q123.372 29.592 123.408 28.08Q123.408 26.388 122.382 25.614Q121.356 24.84 119.232 24.372L114.984 23.4Q112.5 22.86 111.042 22.248Q109.584 21.636 108.576 20.196Q107.568 18.756 107.568 16.164Q107.568 12.708 109.908 10.746Q112.248 8.784 116.748 8.784L117.972 8.784Q122.148 8.784 124.434 10.584Q126.72 12.384 127.044 15.804Q127.08 16.164 127.08 16.884L122.904 16.884Q122.904 14.652 121.626 13.662Q120.348 12.672 117.756 12.672L116.568 12.672Q114.156 12.672 112.95 13.572Q111.744 14.472 111.744 16.056Q111.744 17.604 112.734 18.36Q113.724 19.116 115.632 19.548L119.88 20.556Q122.4 21.132 123.948 21.798Q125.496 22.464 126.54 23.922Q127.584 25.38 127.584 27.972Q127.584 31.356 125.172 33.372Q122.76 35.388 118.332 35.388L116.568 35.388ZM139.572 35.388Q136.98 35.316 134.91 34.056Q132.84 32.796 131.67 30.672Q130.5 28.548 130.5 25.956L130.5 18.216Q130.5 15.552 131.724 13.392Q132.948 11.232 135.108 10.008Q137.268 8.784 139.932 8.784L143.136 8.784Q145.836 8.784 147.996 10.008Q150.156 11.232 151.38 13.392Q152.604 15.552 152.604 18.216L152.604 25.956Q152.604 28.548 151.434 30.672Q150.264 32.796 148.194 34.056Q146.124 35.316 143.532 35.388L143.532 38.664L139.572 38.664L139.572 35.388ZM134.676 25.776Q134.676 28.188 135.99 29.664Q137.304 31.14 139.572 31.32L139.572 25.704L143.532 25.704L143.532 31.32Q145.8 31.14 147.114 29.664Q148.428 28.188 148.428 25.776L148.428 18.36Q148.428 15.804 146.916 14.31Q145.404 12.816 142.848 12.816L140.22 12.816Q137.664 12.816 136.17 14.31Q134.676 15.804 134.676 18.36L134.676 25.776ZM156.708 9.288L160.812 9.288L160.812 30.888L173.952 30.888L173.952 34.884L156.708 34.884L156.708 9.288ZM192.528 35.388Q188.676 35.388 186.66 33.372Q184.644 31.356 184.644 27.504L184.644 16.452L188.604 16.452L188.604 27.432Q188.604 29.412 189.612 30.474Q190.62 31.536 192.492 31.536L193.176 31.536Q195.048 31.536 196.056 30.474Q197.064 29.412 197.064 27.432L197.064 16.452L201.024 16.452L201.024 27.504Q201.024 31.32 199.008 33.354Q196.992 35.388 193.14 35.388L192.528 35.388ZM210.384 35.388Q207 35.388 205.146 33.714Q203.292 32.04 203.292 29.34L207.252 29.34Q207.288 30.564 208.026 31.212Q208.764 31.86 210.636 31.86L212.076 31.86Q213.876 31.86 214.668 31.356Q215.46 30.852 215.46 29.88Q215.46 28.872 214.794 28.368Q214.128 27.864 212.76 27.612L209.016 26.856Q206.316 26.316 204.948 25.11Q203.58 23.904 203.58 21.348Q203.58 18.792 205.434 17.388Q207.288 15.984 210.672 15.984L212.184 15.984Q215.532 15.984 217.368 17.64Q219.204 19.296 219.204 21.888L215.208 21.888Q215.208 20.772 214.488 20.124Q213.768 19.476 211.932 19.476L210.924 19.476Q209.16 19.476 208.368 19.962Q207.576 20.448 207.576 21.456Q207.576 22.392 208.206 22.896Q208.836 23.4 210.168 23.652L213.984 24.408Q216.648 24.912 218.052 26.136Q219.456 27.36 219.456 29.952Q219.456 32.544 217.602 33.966Q215.748 35.388 212.292 35.388L210.384 35.388ZM221.904 16.452L225.864 16.452L225.864 34.884L221.904 34.884L221.904 16.452ZM221.868 9.54L225.864 9.54L225.864 13.86L221.868 13.86L221.868 9.54ZM229.14 23.868Q229.14 20.016 231.138 18Q233.136 15.984 236.952 15.984L237.924 15.984Q241.704 15.984 243.72 18Q245.736 20.016 245.736 23.868L245.736 34.884L241.776 34.884L241.776 23.94Q241.776 21.924 240.75 20.862Q239.724 19.8 237.78 19.8L237.096 19.8Q235.152 19.8 234.126 20.862Q233.1 21.924 233.1 23.94L233.1 34.884L229.14 34.884L229.14 23.868ZM253.8 43.02Q251.244 43.02 249.57 41.49Q247.896 39.96 247.896 37.548L247.896 36.9L251.892 36.9L251.892 37.332Q251.892 38.268 252.576 38.916Q253.26 39.564 254.34 39.564L259.668 39.564Q260.784 39.564 261.468 38.97Q262.152 38.376 262.152 37.404Q262.152 36.432 261.468 35.838Q260.784 35.244 259.668 35.244L252.72 35.244Q251.1 35.244 250.128 34.326Q249.156 33.408 249.156 32.112Q249.156 30.708 250.272 29.556L251.46 28.332Q248.436 26.712 248.436 22.68Q248.436 19.476 250.38 17.73Q252.324 15.984 256.176 15.984L257.724 15.984Q260.712 15.984 262.62 17.1L264.816 15.012L266.976 17.244L264.78 19.404Q265.464 20.736 265.464 22.68Q265.464 25.884 263.52 27.594Q261.576 29.304 257.724 29.304L256.176 29.304Q255.672 29.304 254.808 29.232L253.692 30.348Q253.332 30.708 253.332 31.068Q253.332 31.356 253.584 31.572Q253.836 31.788 254.232 31.788L260.244 31.788Q262.872 31.788 264.51 33.336Q266.148 34.884 266.148 37.368Q266.148 39.852 264.492 41.436Q262.836 43.02 260.244 43.02L253.8 43.02ZM252.432 22.608Q252.432 24.12 253.35 25.002Q254.268 25.884 256.176 25.884L257.76 25.884Q259.632 25.884 260.568 24.984Q261.504 24.084 261.504 22.608Q261.504 21.168 260.568 20.286Q259.632 19.404 257.76 19.404L256.176 19.404Q254.304 19.404 253.368 20.286Q252.432 21.168 252.432 22.608ZM277.416 9.288L281.52 9.288L292.644 25.344L294.516 28.656L294.336 22.932L294.336 9.288L298.44 9.288L298.44 34.884L294.336 34.884L283.284 18.828L281.34 15.48L281.52 21.168L281.52 34.884L277.416 34.884L277.416 9.288ZM308.556 35.388Q305.46 35.388 303.642 33.75Q301.824 32.112 301.824 29.448Q301.824 26.784 303.642 25.182Q305.46 23.58 308.556 23.58L314.46 23.58L314.46 22.644Q314.46 21.24 313.506 20.358Q312.552 19.476 310.932 19.476L310.068 19.476Q308.592 19.476 307.638 20.178Q306.684 20.88 306.468 22.032L302.436 22.032Q302.94 19.008 304.974 17.496Q307.008 15.984 310.212 15.984L310.608 15.984Q314.46 15.984 316.386 17.946Q318.312 19.908 318.312 23.544L318.312 29.124Q318.312 30.42 318.654 30.942Q318.996 31.464 319.824 31.464L320.688 31.464L320.688 34.884L318.672 34.884Q316.008 34.884 315.18 32.688Q314.532 34.02 313.218 34.704Q311.904 35.388 310.212 35.388L308.556 35.388ZM305.892 29.34Q305.892 30.564 306.792 31.302Q307.692 32.04 309.276 32.04L310.284 32.04Q312.156 32.04 313.308 31.068Q314.46 30.096 314.46 28.224L314.46 26.64L309.276 26.64Q307.692 26.64 306.792 27.378Q305.892 28.116 305.892 29.34ZM326.232 12.132L326.232 16.452L331.848 16.452L331.848 20.016L326.232 20.016L326.232 27.36Q326.232 31.248 330.588 31.248L332.28 31.248L332.28 34.884L329.976 34.884Q326.34 34.884 324.306 33.066Q322.272 31.248 322.272 27.648L322.272 12.132L326.232 12.132ZM342.144 35.388Q338.292 35.388 336.276 33.372Q334.26 31.356 334.26 27.504L334.26 16.452L338.22 16.452L338.22 27.432Q338.22 29.412 339.228 30.474Q340.236 31.536 342.108 31.536L342.792 31.536Q344.664 31.536 345.672 30.474Q346.68 29.412 346.68 27.432L346.68 16.452L350.64 16.452L350.64 27.504Q350.64 31.32 348.624 33.354Q346.608 35.388 342.756 35.388L342.144 35.388ZM364.608 20.196L361.908 20.196Q360.108 20.196 358.938 21.438Q357.768 22.68 357.768 24.588L357.768 34.884L353.808 34.884L353.808 24.192Q353.808 20.484 355.932 18.468Q358.056 16.452 361.836 16.452L364.608 16.452L364.608 20.196ZM371.88 35.388Q368.784 35.388 366.966 33.75Q365.148 32.112 365.148 29.448Q365.148 26.784 366.966 25.182Q368.784 23.58 371.88 23.58L377.784 23.58L377.784 22.644Q377.784 21.24 376.83 20.358Q375.876 19.476 374.256 19.476L373.392 19.476Q371.916 19.476 370.962 20.178Q370.008 20.88 369.792 22.032L365.76 22.032Q366.264 19.008 368.298 17.496Q370.332 15.984 373.536 15.984L373.932 15.984Q377.784 15.984 379.71 17.946Q381.636 19.908 381.636 23.544L381.636 29.124Q381.636 30.42 381.978 30.942Q382.32 31.464 383.148 31.464L384.012 31.464L384.012 34.884L381.996 34.884Q379.332 34.884 378.504 32.688Q377.856 34.02 376.542 34.704Q375.228 35.388 373.536 35.388L371.88 35.388ZM369.216 29.34Q369.216 30.564 370.116 31.302Q371.016 32.04 372.6 32.04L373.608 32.04Q375.48 32.04 376.632 31.068Q377.784 30.096 377.784 28.224L377.784 26.64L372.6 26.64Q371.016 26.64 370.116 27.378Q369.216 28.116 369.216 29.34ZM389.7 9.288L389.7 28.224Q389.7 29.772 390.492 30.474Q391.284 31.176 393.048 31.176L394.272 31.176L394.272 34.884L392.184 34.884Q388.872 34.884 387.306 33.282Q385.74 31.68 385.74 27.972L385.74 9.288L389.7 9.288ZM405.648 9.288L409.752 9.288L409.752 30.888L422.892 30.888L422.892 34.884L405.648 34.884L405.648 9.288ZM431.568 35.388Q428.472 35.388 426.654 33.75Q424.836 32.112 424.836 29.448Q424.836 26.784 426.654 25.182Q428.472 23.58 431.568 23.58L437.472 23.58L437.472 22.644Q437.472 21.24 436.518 20.358Q435.564 19.476 433.944 19.476L433.08 19.476Q431.604 19.476 430.65 20.178Q429.696 20.88 429.48 22.032L425.448 22.032Q425.952 19.008 427.986 17.496Q430.02 15.984 433.224 15.984L433.62 15.984Q437.472 15.984 439.398 17.946Q441.324 19.908 441.324 23.544L441.324 29.124Q441.324 30.42 441.666 30.942Q442.008 31.464 442.836 31.464L443.7 31.464L443.7 34.884L441.684 34.884Q439.02 34.884 438.192 32.688Q437.544 34.02 436.23 34.704Q434.916 35.388 433.224 35.388L431.568 35.388ZM428.904 29.34Q428.904 30.564 429.804 31.302Q430.704 32.04 432.288 32.04L433.296 32.04Q435.168 32.04 436.32 31.068Q437.472 30.096 437.472 28.224L437.472 26.64L432.288 26.64Q430.704 26.64 429.804 27.378Q428.904 28.116 428.904 29.34ZM445.68 23.868Q445.68 20.016 447.678 18Q449.676 15.984 453.492 15.984L454.464 15.984Q458.244 15.984 460.26 18Q462.276 20.016 462.276 23.868L462.276 34.884L458.316 34.884L458.316 23.94Q458.316 21.924 457.29 20.862Q456.264 19.8 454.32 19.8L453.636 19.8Q451.692 19.8 450.666 20.862Q449.64 21.924 449.64 23.94L449.64 34.884L445.68 34.884L445.68 23.868ZM470.34 43.02Q467.784 43.02 466.11 41.49Q464.436 39.96 464.436 37.548L464.436 36.9L468.432 36.9L468.432 37.332Q468.432 38.268 469.116 38.916Q469.8 39.564 470.88 39.564L476.208 39.564Q477.324 39.564 478.008 38.97Q478.692 38.376 478.692 37.404Q478.692 36.432 478.008 35.838Q477.324 35.244 476.208 35.244L469.26 35.244Q467.64 35.244 466.668 34.326Q465.696 33.408 465.696 32.112Q465.696 30.708 466.812 29.556L468 28.332Q464.976 26.712 464.976 22.68Q464.976 19.476 466.92 17.73Q468.864 15.984 472.716 15.984L474.264 15.984Q477.252 15.984 479.16 17.1L481.356 15.012L483.516 17.244L481.32 19.404Q482.004 20.736 482.004 22.68Q482.004 25.884 480.06 27.594Q478.116 29.304 474.264 29.304L472.716 29.304Q472.212 29.304 471.348 29.232L470.232 30.348Q469.872 30.708 469.872 31.068Q469.872 31.356 470.124 31.572Q470.376 31.788 470.772 31.788L476.784 31.788Q479.412 31.788 481.05 33.336Q482.688 34.884 482.688 37.368Q482.688 39.852 481.032 41.436Q479.376 43.02 476.784 43.02L470.34 43.02ZM468.972 22.608Q468.972 24.12 469.89 25.002Q470.808 25.884 472.716 25.884L474.3 25.884Q476.172 25.884 477.108 24.984Q478.044 24.084 478.044 22.608Q478.044 21.168 477.108 20.286Q476.172 19.404 474.3 19.404L472.716 19.404Q470.844 19.404 469.908 20.286Q468.972 21.168 468.972 22.608ZM493.02 35.388Q489.168 35.388 487.152 33.372Q485.136 31.356 485.136 27.504L485.136 16.452L489.096 16.452L489.096 27.432Q489.096 29.412 490.104 30.474Q491.112 31.536 492.984 31.536L493.668 31.536Q495.54 31.536 496.548 30.474Q497.556 29.412 497.556 27.432L497.556 16.452L501.516 16.452L501.516 27.504Q501.516 31.32 499.5 33.354Q497.484 35.388 493.632 35.388L493.02 35.388ZM510.732 35.388Q507.636 35.388 505.818 33.75Q504 32.112 504 29.448Q504 26.784 505.818 25.182Q507.636 23.58 510.732 23.58L516.636 23.58L516.636 22.644Q516.636 21.24 515.682 20.358Q514.728 19.476 513.108 19.476L512.244 19.476Q510.768 19.476 509.814 20.178Q508.86 20.88 508.644 22.032L504.612 22.032Q505.116 19.008 507.15 17.496Q509.184 15.984 512.388 15.984L512.784 15.984Q516.636 15.984 518.562 17.946Q520.488 19.908 520.488 23.544L520.488 29.124Q520.488 30.42 520.83 30.942Q521.172 31.464 522 31.464L522.864 31.464L522.864 34.884L520.848 34.884Q518.184 34.884 517.356 32.688Q516.708 34.02 515.394 34.704Q514.08 35.388 512.388 35.388L510.732 35.388ZM508.068 29.34Q508.068 30.564 508.968 31.302Q509.868 32.04 511.452 32.04L512.46 32.04Q514.332 32.04 515.484 31.068Q516.636 30.096 516.636 28.224L516.636 26.64L511.452 26.64Q509.868 26.64 508.968 27.378Q508.068 28.116 508.068 29.34ZM529.596 43.02Q527.04 43.02 525.366 41.49Q523.692 39.96 523.692 37.548L523.692 36.9L527.688 36.9L527.688 37.332Q527.688 38.268 528.372 38.916Q529.056 39.564 530.136 39.564L535.464 39.564Q536.58 39.564 537.264 38.97Q537.948 38.376 537.948 37.404Q537.948 36.432 537.264 35.838Q536.58 35.244 535.464 35.244L528.516 35.244Q526.896 35.244 525.924 34.326Q524.952 33.408 524.952 32.112Q524.952 30.708 526.068 29.556L527.256 28.332Q524.232 26.712 524.232 22.68Q524.232 19.476 526.176 17.73Q528.12 15.984 531.972 15.984L533.52 15.984Q536.508 15.984 538.416 17.1L540.612 15.012L542.772 17.244L540.576 19.404Q541.26 20.736 541.26 22.68Q541.26 25.884 539.316 27.594Q537.372 29.304 533.52 29.304L531.972 29.304Q531.468 29.304 530.604 29.232L529.488 30.348Q529.128 30.708 529.128 31.068Q529.128 31.356 529.38 31.572Q529.632 31.788 530.028 31.788L536.04 31.788Q538.668 31.788 540.306 33.336Q541.944 34.884 541.944 37.368Q541.944 39.852 540.288 41.436Q538.632 43.02 536.04 43.02L529.596 43.02ZM528.228 22.608Q528.228 24.12 529.146 25.002Q530.064 25.884 531.972 25.884L533.556 25.884Q535.428 25.884 536.364 24.984Q537.3 24.084 537.3 22.608Q537.3 21.168 536.364 20.286Q535.428 19.404 533.556 19.404L531.972 19.404Q530.1 19.404 529.164 20.286Q528.228 21.168 528.228 22.608ZM551.808 35.388Q547.884 35.388 545.796 33.3Q543.708 31.212 543.708 27.324L543.708 24.012Q543.708 20.16 545.796 18.072Q547.884 15.984 551.808 15.984L552.564 15.984Q556.452 15.984 558.54 18.072Q560.628 20.16 560.628 24.012L560.628 27.324L547.632 27.324L547.632 27.54Q547.632 29.592 548.712 30.708Q549.792 31.824 551.772 31.824L552.564 31.824Q554.04 31.824 555.012 31.212Q555.984 30.6 556.38 29.484L560.448 29.484Q559.908 32.328 557.892 33.858Q555.876 35.388 552.564 35.388L551.808 35.388ZM556.74 24.156L556.74 23.796Q556.74 21.708 555.678 20.61Q554.616 19.512 552.6 19.512L551.772 19.512Q549.756 19.512 548.694 20.61Q547.632 21.708 547.632 23.796L547.632 24.156L556.74 24.156Z" fill="#FFFFFF" clip-path="url(#clip_path_4)" transform="translate(353 180)" />
  </g>
</svg>